<svg width="174" height="80" viewBox="0 0 174 80" fill="none" xmlns="http://www.w3.org/2000/svg">
<g clip-path="url(#clip0_13357_101939)">
<path opacity="0.978" fill-rule="evenodd" clip-rule="evenodd" d="M173.174 51.1263C173.174 54.2207 173.174 57.3151 173.174 60.4095C172.905 61.8741 172.427 63.2848 171.741 64.6416C170.803 66.1928 169.414 67.0347 167.577 67.1672C164.664 67.6158 161.752 67.6158 158.84 67.1672C156.627 66.6381 155.285 65.2501 154.812 63.0034C153.552 62.0766 152.733 60.8479 152.355 59.3174C152.085 58.2401 151.902 57.148 151.809 56.041C151.731 53.2168 151.731 50.3954 151.809 47.5768C151.383 48.401 151.064 49.2655 150.853 50.1706C150.393 52.8474 149.984 55.5323 149.625 58.2253C149.32 60.32 148.638 62.2767 147.577 64.0956C145.674 66.5597 143.148 67.6975 140 67.5085C137.424 67.5629 135.057 66.9029 132.901 65.529C131.89 64.6218 131.207 63.5069 130.853 62.1843C130.259 61.7039 129.736 61.1578 129.283 60.5461C128.511 62.4565 127.214 63.89 125.393 64.8464C124.841 65.0835 124.295 65.3338 123.754 65.5973C123.389 68.4923 122.32 71.0861 120.546 73.3788C118.101 75.9246 115.097 77.1988 111.536 77.2014C109.161 77.1223 106.863 76.6673 104.642 75.8362C104.164 76.1928 103.777 76.6478 103.481 77.2014C102.08 78.5959 100.419 79.5059 98.4984 79.9317C94.5394 79.9317 90.5803 79.9317 86.6213 79.9317C83.4715 79.648 80.5135 78.7151 77.7475 77.1331C76.2215 75.9702 75.1066 74.4912 74.4028 72.6962C73.5297 71.8147 72.8243 70.8136 72.2868 69.6928C67.8701 69.3739 63.729 68.1452 59.8636 66.0068C56.4751 67.4446 53.1986 67.2399 50.0342 65.3925C48.8542 64.44 48.0579 63.234 47.6452 61.7747C46.2155 60.6136 45.3508 59.1119 45.0513 57.2696C44.8476 55.7278 44.802 54.1805 44.9148 52.628C45.267 49.5824 45.5856 46.5335 45.8704 43.4812C45.9953 42.6015 45.9497 41.7369 45.7339 40.8874C44.3982 41.9192 43.6245 43.2844 43.4131 44.9829C43.2897 45.9117 43.2214 46.8445 43.2083 47.7816C43.36 50.3065 43.4965 52.8321 43.6179 55.3584C43.7619 57.7119 43.2385 59.8962 42.0479 61.9113C40.7807 63.4212 39.1652 64.3085 37.2015 64.5734C34.9811 64.9422 32.7968 64.8057 30.6486 64.1638C28.6759 63.2829 27.379 61.804 26.7578 59.727C25.2808 58.4119 24.3708 56.7736 24.0274 54.8123C23.7761 53.3443 23.6624 51.8654 23.6861 50.3754C23.7959 47.5529 23.9324 44.7315 24.0957 41.9113C24.1847 39.0733 23.6158 38.9596 22.3892 41.57C21.6745 43.5783 21.3787 45.6489 21.5018 47.7816C21.5346 49.9472 21.6484 52.1088 21.8431 54.2662C21.9342 55.9044 21.9342 57.5427 21.8431 59.1809C21.468 63.8247 18.988 66.5323 14.4028 67.3037C11.3188 67.7764 8.49739 67.1392 5.93868 65.3925C4.57716 64.4169 3.66705 63.12 3.2083 61.5017C2.00249 60.5483 1.20612 59.3196 0.819224 57.8157C0.660372 56.7287 0.546607 55.6366 0.477927 54.5392C0.871802 50.3164 1.09933 46.0844 1.16052 41.843C1.0218 36.9644 0.771518 32.0953 0.409668 27.2355C1.39327 24.2527 3.46381 22.5462 6.62127 22.116C9.53237 21.6835 12.1717 22.3205 14.5394 24.0273C15.7167 25.1321 16.6041 26.4291 17.2015 27.9181C21.4441 24.4161 26.154 23.6198 31.3312 25.529C33.7041 26.581 35.7291 28.1055 37.4063 30.1024C39.1211 27.6587 41.328 25.8157 44.0274 24.5734C48.1794 23.1466 52.0701 23.6699 55.6998 26.1433C55.6154 22.0093 57.3219 18.8921 60.8192 16.7918C62.8695 15.9342 65.0083 15.4564 67.2356 15.3584C66.1645 12.8424 65.9142 10.2486 66.4847 7.57678C67.3014 5.03079 68.9623 3.2788 71.4677 2.32081C76.7723 0.0689428 82.1874 -0.249602 87.7134 1.36518C90.6235 2.44492 93.1034 4.1514 95.1537 6.48463C96.4734 8.35039 97.793 10.2161 99.1127 12.0819C99.7981 12.9501 100.64 13.61 101.638 14.0614C102.309 14.2651 102.991 14.3107 103.686 14.1979C104.889 13.7969 106.072 13.3418 107.236 12.8328C111.211 11.8826 114.419 13.043 116.86 16.314C117.464 17.1115 117.965 17.9762 118.362 18.9078C119.492 20.0303 120.311 21.35 120.819 22.8669C123.082 23.4494 124.947 24.6326 126.416 26.4164C126.798 27.2263 127.208 28 127.645 28.7372C127.691 26.0523 127.736 23.3675 127.782 20.6826C127.837 18.9033 128.156 17.1741 128.737 15.4949C129.502 14.0068 130.663 12.9374 132.219 12.2867C134.941 11.1915 137.763 10.8275 140.683 11.1945C143.801 11.4458 145.825 13.0613 146.758 16.0409C148.28 17.4461 149.236 19.1754 149.625 21.2287C149.791 22.0429 149.928 22.862 150.034 23.686C150.22 26.367 150.288 29.0519 150.239 31.7406C154.654 31.367 158.933 31.9813 163.072 33.5836C165.491 34.8456 167.242 36.7342 168.328 39.2491C170.258 41.5163 171.577 44.1102 172.287 47.0307C172.612 48.4085 172.908 49.7736 173.174 51.1263ZM128.259 41.7065C128.575 44.1799 128.689 46.6827 128.601 49.215C128.143 47.9829 127.415 46.9362 126.416 46.0751C126.147 45.3544 125.806 44.6718 125.393 44.0273C126.089 43.7928 126.726 43.4515 127.304 43.0034C127.761 42.662 128.08 42.2296 128.259 41.7065Z" fill="#010101"/>
<path fill-rule="evenodd" clip-rule="evenodd" d="M67.5086 16.7235C68.1071 16.768 68.6987 16.7224 69.2834 16.587C69.2664 16.5042 69.221 16.4587 69.1468 16.4505C68.078 14.4737 67.4864 12.3577 67.3721 10.1024C67.5389 6.70456 69.2227 4.42926 72.4233 3.27644C77.4581 1.23087 82.5549 1.04884 87.7134 2.73036C90.1709 3.72024 92.2869 5.19918 94.0615 7.16723C95.4147 9.00903 96.7344 10.8748 98.0206 12.7645C99.0984 14.0876 100.441 15.0205 102.048 15.5631C102.503 15.6542 102.958 15.6542 103.413 15.5631C104.956 15.1328 106.458 14.5867 107.918 13.9249C110.813 13.3273 113.247 14.1237 115.222 16.314C116.738 18.0267 117.625 20.0291 117.884 22.3208C115.152 22.1261 112.422 22.1489 109.693 22.3891C105.677 23.0203 102.287 24.8179 99.5223 27.7816C97.8047 30.0134 97.2587 32.5162 97.884 35.2901C98.5815 38.7111 100.151 41.6463 102.594 44.0956C103.07 44.493 103.571 44.8571 104.096 45.1877C101.2 45.0079 99.2204 46.2592 98.1571 48.942C96.8328 51.976 96.4689 55.1159 97.0649 58.3618C97.5983 60.3969 98.8498 61.7848 100.819 62.5256C102.413 63.0646 104.051 63.4285 105.734 63.6177C109.531 63.8172 113.308 63.6352 117.065 63.0717C118.027 62.9069 118.96 62.6566 119.864 62.3208C118.748 69.333 114.629 72.6321 107.509 72.2184C105.339 71.9122 103.246 71.3433 101.229 70.5119C100.707 72.2407 99.6151 73.4921 97.9523 74.2662C97.1519 74.5937 96.3328 74.8667 95.495 75.0853C91.2993 75.4135 87.1127 75.3224 82.9352 74.8123C80.6738 74.5136 78.535 73.831 76.5189 72.7645C74.5348 71.368 73.2379 69.4796 72.6281 67.099C72.3961 66.111 72.2369 65.1098 72.1503 64.0956C70.7391 64.6149 69.2828 64.7742 67.7817 64.5734C63.9838 64.0812 60.4798 62.8071 57.2697 60.7508C54.6182 58.3448 53.4352 55.3414 53.7202 51.7406C53.8158 44.9552 57.0013 40.2681 63.2765 37.6792C64.5497 37.2394 65.824 36.8299 67.0991 36.4505C62.9619 35.5403 59.8902 33.2423 57.884 29.5563C56.9366 27.0233 56.8911 24.4749 57.7475 21.9113C59.3433 18.6833 61.9598 16.9768 65.5974 16.7918C66.2328 16.7237 66.8698 16.7009 67.5086 16.7235Z" fill="#FDE348"/>
<path fill-rule="evenodd" clip-rule="evenodd" d="M136.587 12.355C138.631 12.2144 140.632 12.4192 142.594 12.9693C143.846 13.4926 144.733 14.38 145.256 15.6314C145.962 17.3834 146.371 19.2036 146.485 21.0922C146.576 23.6406 146.576 26.1888 146.485 28.7372C146.362 30.8821 146.225 33.0208 146.075 35.1536C147.226 33.998 148.614 33.2926 150.239 33.0376C154.845 32.5843 159.259 33.3125 163.481 35.2219C165.689 36.933 167.212 39.1401 168.055 41.843C169.891 47.1592 170.254 52.5744 169.147 58.0888C168.822 59.4455 168.161 60.6059 167.167 61.57C165.918 62.1641 164.599 62.4828 163.208 62.5256C160.875 62.6762 158.554 62.5853 156.246 62.2526C154.863 61.6075 153.975 60.5382 153.584 59.0444C153.372 58.0023 153.19 56.9558 153.037 55.9045C153.031 50.8519 153.076 45.8007 153.174 40.7509C153.035 40.1802 152.67 39.9072 152.082 39.9318C151.493 39.976 150.971 40.1808 150.512 40.5461C148.747 42.0967 147.631 44.0306 147.167 46.3481C146.693 49.0687 146.284 51.7991 145.939 54.5393C145.629 56.1495 145.129 57.6967 144.437 59.1809C143.476 60.8681 142.042 61.9375 140.136 62.3891C137.233 62.9419 134.456 62.5778 131.809 61.297C130.786 60.5486 130.081 59.5703 129.693 58.3618C129.556 57.2516 129.487 56.1368 129.488 55.0171C129.687 52.6565 129.824 50.2903 129.898 47.9181C129.64 42.0687 129.345 36.2211 129.01 30.3755C128.919 27.1445 128.919 23.9136 129.01 20.6826C129.102 18.9973 129.42 17.3591 129.966 15.7679C130.899 14.5165 132.105 13.6291 133.584 13.1058C134.592 12.8082 135.593 12.5579 136.587 12.355Z" fill="#7B58FE"/>
<path fill-rule="evenodd" clip-rule="evenodd" d="M69.1468 16.4505C69.2209 16.4587 69.2664 16.5042 69.2833 16.587C68.6986 16.7224 68.107 16.768 67.5085 16.7235C68.0546 16.6325 68.6007 16.5416 69.1468 16.4505Z" fill="#514918"/>
<path fill-rule="evenodd" clip-rule="evenodd" d="M6.75778 23.2765C9.31305 22.943 11.6339 23.5118 13.7202 24.983C14.6514 25.7778 15.3114 26.7562 15.6998 27.9181C15.8931 28.7036 16.1206 29.4773 16.3824 30.2389C18.5081 28.1158 21.0337 26.6823 23.9591 25.9386C27.9937 25.3572 31.5432 26.4038 34.6076 29.0785C35.6413 30.0206 36.5742 31.0445 37.4062 32.1502C38.8794 29.9943 40.677 28.1513 42.7987 26.6212C46.3357 24.6216 49.9306 24.5305 53.5837 26.3481C54.3118 26.8032 55.04 27.2583 55.768 27.7133C55.9795 27.8791 56.1387 28.0838 56.2458 28.3277C56.874 30.5857 58.0572 32.4969 59.7953 34.0615C60.1652 35.1086 60.461 36.1779 60.6827 37.2696C60.6711 37.4208 60.6255 37.5573 60.5462 37.6792C55.0336 40.8287 52.3486 45.6068 52.4916 52.0137C52.414 54.6313 53.0284 57.066 54.3346 59.3174C54.9495 60.0732 55.6093 60.7786 56.3141 61.4335C53.5568 62.4421 50.9174 62.2145 48.396 60.7509C46.9936 59.506 46.2427 57.936 46.1434 56.041C46.1207 55.4494 46.098 54.8578 46.0752 54.2662C46.2921 51.4841 46.5878 48.7083 46.9626 45.9386C47.3381 43.2231 47.2016 40.5382 46.553 37.884C45.7406 35.8534 44.3526 35.3301 42.3892 36.314C41.2184 37.2601 40.4221 38.466 40.0001 39.9318C39.6311 41.2488 39.4718 42.5913 39.5223 43.9591C39.5773 45.6692 39.691 47.3757 39.8636 49.0785C39.9546 50.6257 39.9546 52.173 39.8636 53.7202C39.5465 57.5413 37.4759 59.5663 33.652 59.7952C28.1717 60.5499 25.282 58.1608 24.983 52.628C24.9242 49.0286 25.0379 45.4335 25.3243 41.843C25.5004 39.6497 24.9772 37.6474 23.7544 35.8362C22.3892 34.38 21.024 34.38 19.6588 35.8362C18.2525 38.2576 17.6382 40.8741 17.8158 43.686C17.8531 45.8515 17.9668 48.0131 18.1571 50.1707C18.3115 52.5491 18.2206 54.9154 17.8841 57.2696C17.0204 60.1806 15.0864 61.8871 12.082 62.3891C9.33909 62.8574 6.79074 62.3567 4.43696 60.8874C3.05949 59.8852 2.21762 58.5427 1.91137 56.8601C1.86655 53.2142 2.00306 49.5738 2.32092 45.9386C2.57298 39.9769 2.3227 34.0384 1.57007 28.1229C1.82797 26.2249 2.8291 24.8597 4.57348 24.0273C5.30302 23.7326 6.03112 23.4823 6.75778 23.2765Z" fill="#7B58FD"/>
<path fill-rule="evenodd" clip-rule="evenodd" d="M112.014 23.2765C115.483 23.0889 118.851 23.5667 122.116 24.7099C124.277 25.4598 125.62 26.9387 126.143 29.1468C126.361 32.1428 125.86 35.0097 124.642 37.7475C123.519 38.9233 122.131 39.492 120.478 39.454C118.84 39.4994 117.201 39.545 115.563 39.5905C115.128 39.7142 114.81 39.9644 114.608 40.3413C114.651 40.4979 114.742 40.6118 114.881 40.6826C117.544 40.8123 120.046 41.4949 122.389 42.7304C124.169 44.0359 125.239 45.7879 125.597 47.9864C126.087 50.4312 126.178 52.8885 125.87 55.3584C125.274 57.912 123.749 59.6639 121.297 60.6144C116.209 62.3831 110.976 62.9746 105.597 62.3891C103.599 62.2534 101.733 61.7073 100 60.7509C98.4497 59.4007 97.7671 57.6942 97.9522 55.6314C98.0126 52.9704 98.6724 50.4675 99.9318 48.1229C100.623 47.0823 101.602 46.5135 102.867 46.4164C105.24 46.364 107.606 46.4777 109.966 46.7577C110.474 46.7419 110.974 46.6736 111.468 46.5529C111.942 46.1835 111.988 45.774 111.604 45.3243C111.292 45.212 110.973 45.121 110.648 45.0512C108.801 45.0212 106.98 44.7937 105.188 44.3686C103.096 43.1412 101.526 41.4347 100.478 39.2492C99.2647 36.8392 98.7642 34.2908 98.9761 31.6041C99.5429 29.5344 100.703 27.8735 102.457 26.6212C105.329 24.5843 108.514 23.4695 112.014 23.2765Z" fill="#7B58FD"/>
</g>
<defs>
<clipPath id="clip0_13357_101939">
<rect width="173.242" height="80" fill="white"/>
</clipPath>
</defs>
</svg>
